<mxfile host="app.diagrams.net" agent="Mozilla/5.0 (Windows NT 10.0; Win64; x64) AppleWebKit/537.36 (KHTML, like Gecko) Chrome/124.0.0.0 Safari/537.36" version="26.1.0">
  <diagram name="Page-1" id="9VLplM6JxJX9Lbx1Qkt6">
    <mxGraphModel dx="989" dy="585" grid="1" gridSize="10" guides="1" tooltips="1" connect="1" arrows="1" fold="1" page="1" pageScale="1" pageWidth="827" pageHeight="1169" background="none" math="0" shadow="0">
      <root>
        <mxCell id="0" />
        <mxCell id="1" parent="0" />
        <mxCell id="r-5_UUWaWjUbwtfnfI2b-80" value="&lt;div data-darkreader-inline-bgcolor=&quot;&quot; data-darkreader-inline-bgimage=&quot;&quot; style=&quot;box-sizing: border-box; width: 100%; background: rgb(228, 228, 228); padding: 2px; --darkreader-inline-bgimage: initial; --darkreader-inline-bgcolor: var(--darkreader-background-e4e4e4, #272b2c);&quot;&gt;&lt;span style=&quot;white-space: pre;&quot;&gt;&#x9;&lt;/span&gt;Usuarios&lt;/div&gt;&lt;table style=&quot;width:100%;font-size:1em;&quot; cellpadding=&quot;2&quot; cellspacing=&quot;0&quot;&gt;&lt;tbody&gt;&lt;tr&gt;&lt;td&gt;PK&lt;/td&gt;&lt;td&gt;id_usuario&lt;/td&gt;&lt;/tr&gt;&lt;tr&gt;&lt;td&gt;&lt;br&gt;&lt;/td&gt;&lt;td&gt;email&lt;br&gt;hash_contrasenia&lt;br&gt;estado&lt;br&gt;creado_en&lt;/td&gt;&lt;/tr&gt;&lt;tr&gt;&lt;td&gt;&lt;br&gt;&lt;/td&gt;&lt;td&gt;&lt;br&gt;&lt;/td&gt;&lt;/tr&gt;&lt;tr&gt;&lt;td&gt;FK&lt;/td&gt;&lt;td&gt;id_auth (tabla auth)&lt;br&gt;email (tabla auth)&lt;/td&gt;&lt;/tr&gt;&lt;/tbody&gt;&lt;/table&gt;" style="verticalAlign=top;align=left;overflow=fill;html=1;whiteSpace=wrap;" parent="1" vertex="1">
          <mxGeometry x="70" y="310" width="220" height="160" as="geometry" />
        </mxCell>
        <mxCell id="2qLu5BxkNlKCmaabcVRw-7" value="" style="edgeStyle=none;curved=1;rounded=0;orthogonalLoop=1;jettySize=auto;html=1;fontSize=12;startSize=8;endSize=8;" edge="1" parent="1" source="r-5_UUWaWjUbwtfnfI2b-81" target="r-5_UUWaWjUbwtfnfI2b-80">
          <mxGeometry relative="1" as="geometry" />
        </mxCell>
        <mxCell id="2qLu5BxkNlKCmaabcVRw-21" style="edgeStyle=none;curved=1;rounded=0;orthogonalLoop=1;jettySize=auto;html=1;entryX=0;entryY=0.5;entryDx=0;entryDy=0;fontSize=12;startSize=8;endSize=8;" edge="1" parent="1" source="r-5_UUWaWjUbwtfnfI2b-81" target="2qLu5BxkNlKCmaabcVRw-19">
          <mxGeometry relative="1" as="geometry" />
        </mxCell>
        <mxCell id="r-5_UUWaWjUbwtfnfI2b-81" value="&lt;div data-darkreader-inline-bgcolor=&quot;&quot; data-darkreader-inline-bgimage=&quot;&quot; style=&quot;box-sizing: border-box; width: 100%; background: rgb(228, 228, 228); padding: 2px; --darkreader-inline-bgimage: initial; --darkreader-inline-bgcolor: var(--darkreader-background-e4e4e4, #272b2c);&quot;&gt;&lt;span style=&quot;white-space: pre;&quot;&gt;&#x9;&lt;/span&gt;Docentes&lt;/div&gt;&lt;table style=&quot;width:100%;font-size:1em;&quot; cellpadding=&quot;2&quot; cellspacing=&quot;0&quot;&gt;&lt;tbody&gt;&lt;tr&gt;&lt;td&gt;PK&lt;/td&gt;&lt;td&gt;id_docente&lt;br&gt;&lt;/td&gt;&lt;/tr&gt;&lt;tr&gt;&lt;td&gt;&lt;br&gt;&lt;/td&gt;&lt;td&gt;&lt;br&gt;nombre&lt;br&gt;telefono&lt;br&gt;fecha_incorporacion&lt;br&gt;rol&lt;br&gt;&lt;br&gt;&lt;/td&gt;&lt;/tr&gt;&lt;tr&gt;&lt;td&gt;FK&lt;/td&gt;&lt;td&gt;id_usuario&lt;/td&gt;&lt;/tr&gt;&lt;tr&gt;&lt;td&gt;&lt;/td&gt;&lt;td&gt;&lt;br&gt;&lt;/td&gt;&lt;/tr&gt;&lt;/tbody&gt;&lt;/table&gt;" style="verticalAlign=top;align=left;overflow=fill;html=1;whiteSpace=wrap;" parent="1" vertex="1">
          <mxGeometry x="70" y="570" width="220" height="150" as="geometry" />
        </mxCell>
        <mxCell id="2qLu5BxkNlKCmaabcVRw-22" style="edgeStyle=none;curved=1;rounded=0;orthogonalLoop=1;jettySize=auto;html=1;entryX=1;entryY=0.5;entryDx=0;entryDy=0;fontSize=12;startSize=8;endSize=8;" edge="1" parent="1" source="r-5_UUWaWjUbwtfnfI2b-90" target="2qLu5BxkNlKCmaabcVRw-19">
          <mxGeometry relative="1" as="geometry" />
        </mxCell>
        <mxCell id="2qLu5BxkNlKCmaabcVRw-37" style="edgeStyle=none;curved=1;rounded=0;orthogonalLoop=1;jettySize=auto;html=1;entryX=0.5;entryY=0;entryDx=0;entryDy=0;fontSize=12;startSize=8;endSize=8;" edge="1" parent="1" source="r-5_UUWaWjUbwtfnfI2b-90" target="2qLu5BxkNlKCmaabcVRw-36">
          <mxGeometry relative="1" as="geometry" />
        </mxCell>
        <mxCell id="r-5_UUWaWjUbwtfnfI2b-90" value="&lt;div data-darkreader-inline-bgcolor=&quot;&quot; data-darkreader-inline-bgimage=&quot;&quot; style=&quot;box-sizing: border-box; width: 100%; background: rgb(228, 228, 228); padding: 2px; --darkreader-inline-bgimage: initial; --darkreader-inline-bgcolor: var(--darkreader-background-e4e4e4, #272b2c);&quot;&gt;&lt;span style=&quot;white-space: pre;&quot;&gt;&#x9;&lt;/span&gt;Guardias&lt;/div&gt;&lt;table style=&quot;width:100%;font-size:1em;&quot; cellpadding=&quot;2&quot; cellspacing=&quot;0&quot;&gt;&lt;tbody&gt;&lt;tr&gt;&lt;td&gt;PK&lt;/td&gt;&lt;td&gt;id_guardia&lt;/td&gt;&lt;/tr&gt;&lt;tr&gt;&lt;td&gt;&lt;br&gt;&lt;/td&gt;&lt;td&gt;&lt;br&gt;estado&lt;br&gt;fecha_inicio&lt;br&gt;fecha_fin&lt;br&gt;tarea&lt;br&gt;tipo_guardia&lt;br&gt;&lt;br&gt;&lt;/td&gt;&lt;/tr&gt;&lt;tr&gt;&lt;td&gt;FK&lt;/td&gt;&lt;td&gt;id_profesor_asignado&lt;br&gt;id_profesor_ausente&lt;br&gt;id_clase&lt;/td&gt;&lt;/tr&gt;&lt;tr&gt;&lt;td&gt;&lt;/td&gt;&lt;td&gt;&lt;br&gt;&lt;/td&gt;&lt;/tr&gt;&lt;/tbody&gt;&lt;/table&gt;" style="verticalAlign=top;align=left;overflow=fill;html=1;whiteSpace=wrap;" parent="1" vertex="1">
          <mxGeometry x="440" y="530" width="220" height="207.5" as="geometry" />
        </mxCell>
        <mxCell id="r-5_UUWaWjUbwtfnfI2b-91" value="&lt;div data-darkreader-inline-bgcolor=&quot;&quot; data-darkreader-inline-bgimage=&quot;&quot; style=&quot;box-sizing: border-box; width: 100%; background: rgb(228, 228, 228); padding: 2px; --darkreader-inline-bgimage: initial; --darkreader-inline-bgcolor: var(--darkreader-background-e4e4e4, #272b2c);&quot;&gt;&lt;span style=&quot;white-space: pre;&quot;&gt;&#x9;&lt;/span&gt;Ausencias&lt;/div&gt;&lt;table style=&quot;width:100%;font-size:1em;&quot; cellpadding=&quot;2&quot; cellspacing=&quot;0&quot;&gt;&lt;tbody&gt;&lt;tr&gt;&lt;td&gt;PK&lt;/td&gt;&lt;td&gt;id_ausencia&lt;/td&gt;&lt;/tr&gt;&lt;tr&gt;&lt;td&gt;&lt;br&gt;&lt;/td&gt;&lt;td&gt;&lt;br&gt;fecha_inicio&lt;br&gt;fecha_fin&lt;br&gt;comentario&lt;br&gt;motivo&lt;br&gt;&lt;br&gt;&lt;/td&gt;&lt;/tr&gt;&lt;tr&gt;&lt;td&gt;FK&lt;/td&gt;&lt;td&gt;id_docente&lt;/td&gt;&lt;/tr&gt;&lt;tr&gt;&lt;td&gt;&lt;/td&gt;&lt;td&gt;&lt;br&gt;&lt;/td&gt;&lt;/tr&gt;&lt;/tbody&gt;&lt;/table&gt;" style="verticalAlign=top;align=left;overflow=fill;html=1;whiteSpace=wrap;" parent="1" vertex="1">
          <mxGeometry x="440" y="870" width="220" height="160" as="geometry" />
        </mxCell>
        <mxCell id="2qLu5BxkNlKCmaabcVRw-14" style="edgeStyle=none;curved=1;rounded=0;orthogonalLoop=1;jettySize=auto;html=1;entryX=1;entryY=0.5;entryDx=0;entryDy=0;fontSize=12;startSize=8;endSize=8;" edge="1" parent="1" source="2qLu5BxkNlKCmaabcVRw-1" target="2qLu5BxkNlKCmaabcVRw-12">
          <mxGeometry relative="1" as="geometry" />
        </mxCell>
        <mxCell id="2qLu5BxkNlKCmaabcVRw-1" value="&lt;div data-darkreader-inline-bgcolor=&quot;&quot; data-darkreader-inline-bgimage=&quot;&quot; style=&quot;box-sizing: border-box; width: 100%; background: rgb(228, 228, 228); padding: 2px; --darkreader-inline-bgimage: initial; --darkreader-inline-bgcolor: var(--darkreader-background-e4e4e4, #272b2c);&quot;&gt;&lt;span style=&quot;white-space: pre;&quot;&gt;&#x9;&lt;/span&gt;Clases&lt;/div&gt;&lt;table style=&quot;width:100%;font-size:1em;&quot; cellpadding=&quot;2&quot; cellspacing=&quot;0&quot;&gt;&lt;tbody&gt;&lt;tr&gt;&lt;td&gt;PK&lt;/td&gt;&lt;td&gt;id_clase&lt;/td&gt;&lt;/tr&gt;&lt;tr&gt;&lt;td&gt;&lt;br&gt;&lt;/td&gt;&lt;td&gt;&lt;br&gt;ciclo&lt;br&gt;&lt;br&gt;&lt;br&gt;&lt;/td&gt;&lt;/tr&gt;&lt;tr&gt;&lt;td&gt;&lt;br&gt;&lt;/td&gt;&lt;td&gt;&lt;/td&gt;&lt;/tr&gt;&lt;tr&gt;&lt;td&gt;&lt;/td&gt;&lt;td&gt;&lt;br&gt;&lt;/td&gt;&lt;/tr&gt;&lt;/tbody&gt;&lt;/table&gt;" style="verticalAlign=top;align=left;overflow=fill;html=1;whiteSpace=wrap;" vertex="1" parent="1">
          <mxGeometry x="790" y="607.5" width="220" height="110" as="geometry" />
        </mxCell>
        <mxCell id="2qLu5BxkNlKCmaabcVRw-5" value="" style="edgeStyle=none;curved=1;rounded=0;orthogonalLoop=1;jettySize=auto;html=1;fontSize=12;startSize=8;endSize=8;" edge="1" parent="1" source="2qLu5BxkNlKCmaabcVRw-4" target="r-5_UUWaWjUbwtfnfI2b-80">
          <mxGeometry relative="1" as="geometry" />
        </mxCell>
        <mxCell id="2qLu5BxkNlKCmaabcVRw-6" style="edgeStyle=none;curved=1;rounded=0;orthogonalLoop=1;jettySize=auto;html=1;fontSize=12;startSize=8;endSize=8;" edge="1" parent="1">
          <mxGeometry relative="1" as="geometry">
            <mxPoint x="180" y="570" as="targetPoint" />
            <mxPoint x="179.76" y="510" as="sourcePoint" />
          </mxGeometry>
        </mxCell>
        <mxCell id="2qLu5BxkNlKCmaabcVRw-4" value="Es" style="rhombus;whiteSpace=wrap;html=1;" vertex="1" parent="1">
          <mxGeometry x="140" y="500" width="80" height="45" as="geometry" />
        </mxCell>
        <mxCell id="2qLu5BxkNlKCmaabcVRw-9" value="0,1" style="text;html=1;align=center;verticalAlign=middle;whiteSpace=wrap;rounded=0;" vertex="1" parent="1">
          <mxGeometry x="170" y="470" width="60" height="30" as="geometry" />
        </mxCell>
        <mxCell id="2qLu5BxkNlKCmaabcVRw-10" value="0,1" style="text;html=1;align=center;verticalAlign=middle;whiteSpace=wrap;rounded=0;" vertex="1" parent="1">
          <mxGeometry x="170" y="540" width="60" height="30" as="geometry" />
        </mxCell>
        <mxCell id="2qLu5BxkNlKCmaabcVRw-11" value="0,1" style="text;html=1;align=center;verticalAlign=middle;whiteSpace=wrap;rounded=0;" vertex="1" parent="1">
          <mxGeometry x="210" y="507.5" width="60" height="30" as="geometry" />
        </mxCell>
        <mxCell id="2qLu5BxkNlKCmaabcVRw-20" value="" style="edgeStyle=none;curved=1;rounded=0;orthogonalLoop=1;jettySize=auto;html=1;fontSize=12;startSize=8;endSize=8;" edge="1" parent="1" source="2qLu5BxkNlKCmaabcVRw-12" target="r-5_UUWaWjUbwtfnfI2b-90">
          <mxGeometry relative="1" as="geometry" />
        </mxCell>
        <mxCell id="2qLu5BxkNlKCmaabcVRw-12" value="Es en" style="rhombus;whiteSpace=wrap;html=1;" vertex="1" parent="1">
          <mxGeometry x="690" y="622.5" width="80" height="45" as="geometry" />
        </mxCell>
        <mxCell id="2qLu5BxkNlKCmaabcVRw-19" value="Realiza" style="rhombus;whiteSpace=wrap;html=1;" vertex="1" parent="1">
          <mxGeometry x="334" y="622.5" width="80" height="45" as="geometry" />
        </mxCell>
        <mxCell id="2qLu5BxkNlKCmaabcVRw-23" value="1,1" style="text;html=1;align=center;verticalAlign=middle;whiteSpace=wrap;rounded=0;" vertex="1" parent="1">
          <mxGeometry x="274" y="592.5" width="60" height="30" as="geometry" />
        </mxCell>
        <mxCell id="2qLu5BxkNlKCmaabcVRw-24" value="1,1" style="text;html=1;align=center;verticalAlign=middle;whiteSpace=wrap;rounded=0;" vertex="1" parent="1">
          <mxGeometry x="343.5" y="585" width="60" height="30" as="geometry" />
        </mxCell>
        <mxCell id="2qLu5BxkNlKCmaabcVRw-25" value="1,1" style="text;html=1;align=center;verticalAlign=middle;whiteSpace=wrap;rounded=0;" vertex="1" parent="1">
          <mxGeometry x="390" y="607.5" width="60" height="30" as="geometry" />
        </mxCell>
        <mxCell id="2qLu5BxkNlKCmaabcVRw-35" value="1,1" style="text;html=1;align=center;verticalAlign=middle;whiteSpace=wrap;rounded=0;" vertex="1" parent="1">
          <mxGeometry x="640" y="607.5" width="60" height="30" as="geometry" />
        </mxCell>
        <mxCell id="2qLu5BxkNlKCmaabcVRw-38" style="edgeStyle=none;curved=1;rounded=0;orthogonalLoop=1;jettySize=auto;html=1;entryX=0.5;entryY=0;entryDx=0;entryDy=0;fontSize=12;startSize=8;endSize=8;" edge="1" parent="1" source="2qLu5BxkNlKCmaabcVRw-36" target="r-5_UUWaWjUbwtfnfI2b-91">
          <mxGeometry relative="1" as="geometry" />
        </mxCell>
        <mxCell id="2qLu5BxkNlKCmaabcVRw-36" value="Es en" style="rhombus;whiteSpace=wrap;html=1;" vertex="1" parent="1">
          <mxGeometry x="510" y="770" width="80" height="45" as="geometry" />
        </mxCell>
        <mxCell id="2qLu5BxkNlKCmaabcVRw-39" value="0,1" style="text;html=1;align=center;verticalAlign=middle;whiteSpace=wrap;rounded=0;" vertex="1" parent="1">
          <mxGeometry x="540" y="737.5" width="60" height="30" as="geometry" />
        </mxCell>
        <mxCell id="2qLu5BxkNlKCmaabcVRw-40" value="0,1" style="text;html=1;align=center;verticalAlign=middle;whiteSpace=wrap;rounded=0;" vertex="1" parent="1">
          <mxGeometry x="540" y="840" width="60" height="30" as="geometry" />
        </mxCell>
        <mxCell id="2qLu5BxkNlKCmaabcVRw-42" style="edgeStyle=none;curved=1;rounded=0;orthogonalLoop=1;jettySize=auto;html=1;exitX=0.25;exitY=0;exitDx=0;exitDy=0;fontSize=12;startSize=8;endSize=8;" edge="1" parent="1" source="2qLu5BxkNlKCmaabcVRw-40" target="2qLu5BxkNlKCmaabcVRw-40">
          <mxGeometry relative="1" as="geometry" />
        </mxCell>
        <mxCell id="2qLu5BxkNlKCmaabcVRw-43" value="0,1" style="text;html=1;align=center;verticalAlign=middle;whiteSpace=wrap;rounded=0;" vertex="1" parent="1">
          <mxGeometry x="600" y="777.5" width="60" height="30" as="geometry" />
        </mxCell>
        <mxCell id="2qLu5BxkNlKCmaabcVRw-44" value="1,1" style="text;html=1;align=center;verticalAlign=middle;whiteSpace=wrap;rounded=0;" vertex="1" parent="1">
          <mxGeometry x="740" y="607.5" width="60" height="30" as="geometry" />
        </mxCell>
        <mxCell id="2qLu5BxkNlKCmaabcVRw-45" value="1,1" style="text;html=1;align=center;verticalAlign=middle;whiteSpace=wrap;rounded=0;" vertex="1" parent="1">
          <mxGeometry x="700" y="592.5" width="60" height="30" as="geometry" />
        </mxCell>
      </root>
    </mxGraphModel>
  </diagram>
</mxfile>
